<?xml version="1.0" encoding="utf-8"?>
<!-- Generator: Adobe Illustrator 19.0.0, SVG Export Plug-In . SVG Version: 6.00 Build 0)  -->
<svg version="1.1" id="Layer_1" xmlns="http://www.w3.org/2000/svg" xmlns:xlink="http://www.w3.org/1999/xlink" x="0px" y="0px"
	 viewBox="-255 347 100 100" style="enable-background:new -255 347 100 100;" xml:space="preserve">
<style type="text/css">
	.st0{fill:#FFFFFF;}
</style>
<path class="st0" d="M-186.1,383.5h-38c-1.1,0-2-0.9-2-2c0-1.1,0.9-2,2-2h38c1.1,0,2,0.9,2,2C-184.1,382.6-185,383.5-186.1,383.5z
	 M-222.1,387.5h30c1.1,0,2,0.9,2,2c0,1.1-0.9,2-2,2h-30c-1.1,0-2-0.9-2-2C-224.1,388.4-223.2,387.5-222.1,387.5z M-210.1,395.5h22
	c1.1,0,2,0.9,2,2c0,1.1-0.9,2-2,2h-22c-1.1,0-2-0.9-2-2C-212.1,396.4-211.2,395.5-210.1,395.5z M-208.1,411.5h6c1.1,0,2,0.9,2,2
	c0,1.1-0.9,2-2,2h-6c-1.1,0-2-0.9-2-2C-210.1,412.4-209.2,411.5-208.1,411.5z M-207.1,405.5c0-1.1,0.9-2,2-2h14c1.1,0,2,0.9,2,2
	c0,1.1-0.9,2-2,2h-14C-206.2,407.5-207.1,406.6-207.1,405.5z"/>
</svg>
