<?xml version="1.0" encoding="utf-8"?>
<!-- Generator: Adobe Illustrator 19.0.0, SVG Export Plug-In . SVG Version: 6.00 Build 0)  -->
<svg version="1.1" id="Layer_1" xmlns="http://www.w3.org/2000/svg" xmlns:xlink="http://www.w3.org/1999/xlink" x="0px" y="0px"
	 viewBox="-255 347 100 100" style="enable-background:new -255 347 100 100;" xml:space="preserve">
<style type="text/css">
	.st0{fill:#FFFFFF;}
</style>
<path class="st0" d="M-195.3,393.7l-2,1.1c0.2,0.7,0.3,1.4,0.3,2.1c0,0.7-0.1,1.5-0.3,2.1l2,1.1c1,0.6,1.3,1.8,0.7,2.7
	c-0.6,1-1.8,1.3-2.7,0.7l-2-1.1c-1,1-2.3,1.8-3.7,2.1v2.3c0,1.1-0.9,2-2,2s-2-0.9-2-2v-2.3c-1.4-0.4-2.7-1.1-3.7-2.1l-2,1.1
	c-1,0.6-2.2,0.2-2.7-0.7c-0.6-1-0.2-2.2,0.7-2.7l2-1.1c-0.2-0.7-0.3-1.4-0.3-2.1c0-0.7,0.1-1.5,0.3-2.1l-2-1.1
	c-1-0.6-1.3-1.8-0.7-2.7c0.6-1,1.8-1.3,2.7-0.7l2,1.1c1-1,2.3-1.8,3.7-2.1V387c0-1.1,0.9-2,2-2s2,0.9,2,2v2.3
	c1.4,0.4,2.7,1.1,3.7,2.1l2-1.1c1-0.6,2.2-0.2,2.7,0.7C-194.1,392-194.4,393.2-195.3,393.7z M-205,393c-2.2,0-4,1.8-4,4
	c0,2.2,1.8,4,4,4s4-1.8,4-4C-201,394.8-202.8,393-205,393z"/>
</svg>
