<?xml version="1.0" encoding="utf-8"?>
<!-- Generator: Adobe Illustrator 19.0.0, SVG Export Plug-In . SVG Version: 6.00 Build 0)  -->
<svg version="1.1" id="Layer_1" xmlns="http://www.w3.org/2000/svg" xmlns:xlink="http://www.w3.org/1999/xlink" x="0px" y="0px"
	 viewBox="-255 347 100 100" style="enable-background:new -255 347 100 100;" xml:space="preserve">
<style type="text/css">
	.st0{fill:#FFFFFF;}
</style>
<path class="st0" d="M-183,405h-4c-1.1,0-2-0.9-2-2c0-1.1,0.9-2,2-2h4c1.1,0,2,0.9,2,2C-181,404.1-181.9,405-183,405z M-190.9,391.7
	c-0.8,0.8-2,0.8-2.8,0c-0.8-0.8-0.8-2,0-2.8l2.8-2.8c0.8-0.8,2-0.8,2.8,0c0.8,0.8,0.8,2,0,2.8L-190.9,391.7z M-193.7,407h-4.4
	c0.7-1.2,1.1-2.5,1.1-4c0-4.4-3.6-8-8-8c-4.4,0-8,3.6-8,8c0,1.5,0.4,2.8,1.1,4h-4.4c-0.4-1.3-0.7-2.6-0.7-4c0-6.6,5.4-12,12-12
	c6.6,0,12,5.4,12,12C-193,404.4-193.3,405.7-193.7,407z M-205,387c-1.1,0-2-0.9-2-2v-4c0-1.1,0.9-2,2-2s2,0.9,2,2v4
	C-203,386.1-203.9,387-205,387z M-219.1,391.7l-2.8-2.8c-0.8-0.8-0.8-2,0-2.8c0.8-0.8,2-0.8,2.8,0l2.8,2.8c0.8,0.8,0.8,2,0,2.8
	C-217.1,392.5-218.4,392.5-219.1,391.7z M-221,403c0,1.1-0.9,2-2,2h-4c-1.1,0-2-0.9-2-2c0-1.1,0.9-2,2-2h4
	C-221.9,401-221,401.9-221,403z M-215,411h20c1.1,0,2,0.9,2,2c0,1.1-0.9,2-2,2h-20c-1.1,0-2-0.9-2-2C-217,411.9-216.1,411-215,411z"
	/>
</svg>
