<?xml version="1.0" encoding="utf-8"?>
<!-- Generator: Adobe Illustrator 19.0.0, SVG Export Plug-In . SVG Version: 6.00 Build 0)  -->
<svg version="1.1" id="Layer_1" xmlns="http://www.w3.org/2000/svg" xmlns:xlink="http://www.w3.org/1999/xlink" x="0px" y="0px"
	 viewBox="-255 347 100 100" style="enable-background:new -255 347 100 100;" xml:space="preserve">
<style type="text/css">
	.st0{fill:#FFFFFF;}
</style>
<path class="st0" d="M-205,409c-6.6,0-12-5.4-12-12c0-6.6,5.4-12,12-12c0.8,0,1.5,0.1,2.2,0.2c-0.1,0.6-0.2,1.2-0.2,1.8
	c0,4.4,3.6,8,8,8c0.6,0,1.2-0.1,1.8-0.2c0.1,0.7,0.2,1.5,0.2,2.2C-193,403.6-198.4,409-205,409z M-206.8,389.2
	c-3.6,0.8-6.2,4-6.2,7.8c0,4.4,3.6,8,8,8c3.8,0,7-2.7,7.8-6.2C-202.1,397.9-205.9,394.1-206.8,389.2z"/>
</svg>
