<?xml version="1.0" encoding="utf-8"?>
<!-- Generator: Adobe Illustrator 19.0.0, SVG Export Plug-In . SVG Version: 6.00 Build 0)  -->
<svg version="1.1" id="Layer_1" xmlns="http://www.w3.org/2000/svg" xmlns:xlink="http://www.w3.org/1999/xlink" x="0px" y="0px"
	 viewBox="-255 347 100 100" style="enable-background:new -255 347 100 100;" xml:space="preserve">
<style type="text/css">
	.st0{fill:#FFFFFF;}
</style>
<path class="st0" d="M-175,390.6h-4c-1.1,0-2-0.9-2-2c0-1.1,0.9-2,2-2h4c1.1,0,2,0.9,2,2C-173,389.7-173.9,390.6-175,390.6z
	 M-182.9,377.3c-0.8,0.8-2,0.8-2.8,0c-0.8-0.8-0.8-2,0-2.8l2.8-2.8c0.8-0.8,2-0.8,2.8,0c0.8,0.8,0.8,2,0,2.8L-182.9,377.3z
	 M-185.8,392.9L-185.8,392.9c0.9,1.1,1.6,2.3,2.1,3.7h-4.4c-1.4-2.4-4-4-6.9-4c-1.6,0-3.1,0.5-4.3,1.3c-1.2-5.3-6-9.3-11.7-9.3
	c-6.6,0-12,5.4-12,12h-4c0-8.8,7.2-16,16-16c1.6,0,3.1,0.2,4.5,0.7c2.2-2.8,5.6-4.7,9.5-4.7c6.6,0,12,5.4,12,12
	C-185,390.2-185.3,391.6-185.8,392.9z M-197,380.6c-2.2,0-4.2,0.9-5.7,2.4c2.3,1.4,4.3,3.5,5.6,5.9c0.7-0.1,1.3-0.2,2-0.2
	c2.1,0,4.1,0.6,5.8,1.5l0,0c0.1-0.5,0.1-1,0.1-1.5C-189,384.2-192.6,380.6-197,380.6z M-197,372.6c-1.1,0-2-0.9-2-2v-4
	c0-1.1,0.9-2,2-2c1.1,0,2,0.9,2,2v4C-195,371.8-195.9,372.6-197,372.6z M-211.1,377.3l-2.8-2.8c-0.8-0.8-0.8-2,0-2.8
	c0.8-0.8,2-0.8,2.8,0l2.8,2.8c0.8,0.8,0.8,2,0,2.8C-209.1,378.1-210.4,378.1-211.1,377.3z M-225,400.6h40c1.1,0,2,0.9,2,2
	c0,1.1-0.9,2-2,2h-40c-1.1,0-2-0.9-2-2C-227,401.5-226.1,400.6-225,400.6z M-225,408.6h40c1.1,0,2,0.9,2,2c0,1.1-0.9,2-2,2h-40
	c-1.1,0-2-0.9-2-2C-227,409.5-226.1,408.6-225,408.6z M-225,416.6h40c1.1,0,2,0.9,2,2c0,1.1-0.9,2-2,2h-40c-1.1,0-2-0.9-2-2
	C-227,417.5-226.1,416.6-225,416.6z"/>
</svg>
