<?xml version="1.0" encoding="utf-8"?>
<!-- Generator: Adobe Illustrator 19.0.0, SVG Export Plug-In . SVG Version: 6.00 Build 0)  -->
<svg version="1.1" id="Layer_1" xmlns="http://www.w3.org/2000/svg" xmlns:xlink="http://www.w3.org/1999/xlink" x="0px" y="0px"
	 viewBox="-255 347 100 100" style="enable-background:new -255 347 100 100;" xml:space="preserve">
<style type="text/css">
	.st0{fill:#FFFFFF;}
</style>
<path class="st0" d="M-183,399h-4c-1.1,0-2-0.9-2-2s0.9-2,2-2h4c1.1,0,2,0.9,2,2S-181.9,399-183,399z M-190.9,385.7
	c-0.8,0.8-2,0.8-2.8,0c-0.8-0.8-0.8-2,0-2.8l2.8-2.8c0.8-0.8,2-0.8,2.8,0c0.8,0.8,0.8,2,0,2.8L-190.9,385.7z M-205,409
	c-6.6,0-12-5.4-12-12c0-6.6,5.4-12,12-12c6.6,0,12,5.4,12,12C-193,403.6-198.4,409-205,409z M-205,389c-4.4,0-8,3.6-8,8
	c0,4.4,3.6,8,8,8c4.4,0,8-3.6,8-8C-197,392.6-200.6,389-205,389z M-205,381c-1.1,0-2-0.9-2-2v-4c0-1.1,0.9-2,2-2c1.1,0,2,0.9,2,2v4
	C-203,380.1-203.9,381-205,381z M-219.1,385.7l-2.8-2.8c-0.8-0.8-0.8-2,0-2.8c0.8-0.8,2-0.8,2.8,0l2.8,2.8c0.8,0.8,0.8,2,0,2.8
	C-217.1,386.5-218.4,386.5-219.1,385.7z M-221,397c0,1.1-0.9,2-2,2h-4c-1.1,0-2-0.9-2-2s0.9-2,2-2h4C-221.9,395-221,395.9-221,397z
	 M-219.1,408.3c0.8-0.8,2-0.8,2.8,0c0.8,0.8,0.8,2,0,2.8l-2.8,2.8c-0.8,0.8-2,0.8-2.8,0c-0.8-0.8-0.8-2,0-2.8L-219.1,408.3z
	 M-205,413c1.1,0,2,0.9,2,2v4c0,1.1-0.9,2-2,2c-1.1,0-2-0.9-2-2v-4C-207,413.9-206.1,413-205,413z M-190.9,408.3l2.8,2.8
	c0.8,0.8,0.8,2,0,2.8c-0.8,0.8-2,0.8-2.8,0l-2.8-2.8c-0.8-0.8-0.8-2,0-2.8C-192.9,407.5-191.6,407.5-190.9,408.3z"/>
</svg>
