<?xml version="1.0" encoding="utf-8"?>
<!-- Generator: Adobe Illustrator 19.0.0, SVG Export Plug-In . SVG Version: 6.00 Build 0)  -->
<svg version="1.1" id="Layer_1" xmlns="http://www.w3.org/2000/svg" xmlns:xlink="http://www.w3.org/1999/xlink" x="0px" y="0px"
	 viewBox="-255 347 100 100" style="enable-background:new -255 347 100 100;" xml:space="preserve">
<style type="text/css">
	.st0{fill:#FFFFFF;}
</style>
<path class="st0" d="M-175.1,390.6h-4c-1.1,0-2-0.9-2-2c0-1.1,0.9-2,2-2h4c1.1,0,2,0.9,2,2C-173.1,389.7-174,390.6-175.1,390.6z
	 M-182.9,377.3c-0.8,0.8-2,0.8-2.8,0c-0.8-0.8-0.8-2,0-2.8l2.8-2.8c0.8-0.8,2-0.8,2.8,0c0.8,0.8,0.8,2,0,2.8L-182.9,377.3z
	 M-185.9,392.9L-185.9,392.9c1.7,2.1,2.8,4.8,2.8,7.7c0,6.6-5.4,12-12,12c-2.8,0-12.8,0-16,0c-8.8,0-16-7.2-16-16s7.2-16,16-16
	c1.6,0,3.1,0.2,4.5,0.7c2.2-2.8,5.6-4.7,9.5-4.7c6.6,0,12,5.4,12,12C-185.1,390.2-185.4,391.6-185.9,392.9z M-223.1,396.6
	c0,6.6,5.4,12,12,12c3.6,0,13,0,16,0c4.4,0,8-3.6,8-8c0-4.4-3.6-8-8-8c-1.6,0-3.1,0.5-4.3,1.3c-1.2-5.3-6-9.3-11.7-9.3
	C-217.7,384.6-223.1,390-223.1,396.6z M-197.1,380.6c-2.2,0-4.2,0.9-5.7,2.3c2.3,1.4,4.3,3.5,5.6,5.9c0.7-0.1,1.3-0.2,2-0.2
	c2.1,0,4.1,0.6,5.8,1.5l0,0c0.1-0.5,0.2-1,0.2-1.5C-189.1,384.2-192.6,380.6-197.1,380.6z M-197.1,372.6c-1.1,0-2-0.9-2-2v-4
	c0-1.1,0.9-2,2-2c1.1,0,2,0.9,2,2v4C-195.1,371.7-196,372.6-197.1,372.6z M-211.2,377.3l-2.8-2.8c-0.8-0.8-0.8-2,0-2.8
	c0.8-0.8,2-0.8,2.8,0l2.8,2.8c0.8,0.8,0.8,2,0,2.8C-209.1,378.1-210.4,378.1-211.2,377.3z"/>
</svg>
