<?xml version="1.0" encoding="utf-8"?>
<!-- Generator: Adobe Illustrator 19.0.0, SVG Export Plug-In . SVG Version: 6.00 Build 0)  -->
<svg version="1.1" id="Layer_1" xmlns="http://www.w3.org/2000/svg" xmlns:xlink="http://www.w3.org/1999/xlink" x="0px" y="0px"
	 viewBox="-255 347 100 100" style="enable-background:new -255 347 100 100;" xml:space="preserve">
<style type="text/css">
	.st0{fill:#FFFFFF;}
</style>
<path class="st0" d="M-185.2,393.8L-185.2,393.8c1.4,1.9,2.2,4.3,2.2,6.9c0,5.2-3.3,9.7-8,11.3v-4.4c2.4-1.4,4-4,4-6.9
	c0-4.4-3.6-8-8-8c-1.6,0-3.1,0.5-4.3,1.3c-1.2-5.3-6-9.3-11.7-9.3c-6.6,0-12,5.4-12,12c0,3.5,1.5,6.7,4,8.9v4.9
	c-4.8-2.8-8-7.9-8-13.8c0-8.8,7.2-16,16-16c2,0,3.9,0.4,5.7,1l0,0c1.6-4.7,6.1-8,11.3-8c0.8,0,1.5,0.1,2.2,0.2
	c-0.1,0.6-0.2,1.2-0.2,1.8c0,4.4,3.6,8,8,8c0.6,0,1.2-0.1,1.8-0.2c0.1,0.7,0.2,1.5,0.2,2.2C-182.1,388.8-183.3,391.6-185.2,393.8z
	 M-195.8,377.9c-2.9,0.7-5.2,2.9-5.9,5.8l0,0c1.9,1.4,3.5,3.2,4.7,5.2c0.7-0.1,1.3-0.2,2-0.2c2.6,0,5,0.8,7,2.3l0,0
	c0.9-1,1.5-2.2,1.8-3.5C-191.1,386.5-194.9,382.7-195.8,377.9z M-213.1,400.6c1.1,0,2,0.9,2,2v4c0,1.1-0.9,2-2,2c-1.1,0-2-0.9-2-2
	v-4C-215.1,401.5-214.2,400.6-213.1,400.6z M-213.1,412.6c1.1,0,2,0.9,2,2v4c0,1.1-0.9,2-2,2c-1.1,0-2-0.9-2-2v-4
	C-215.1,413.5-214.2,412.6-213.1,412.6z M-205.1,404.6c1.1,0,2,0.9,2,2v4c0,1.1-0.9,2-2,2c-1.1,0-2-0.9-2-2v-4
	C-207.1,405.5-206.2,404.6-205.1,404.6z M-205.1,416.6c1.1,0,2,0.9,2,2v4c0,1.1-0.9,2-2,2c-1.1,0-2-0.9-2-2v-4
	C-207.1,417.5-206.2,416.6-205.1,416.6z M-197.1,400.6c1.1,0,2,0.9,2,2v4c0,1.1-0.9,2-2,2c-1.1,0-2-0.9-2-2v-4
	C-199.1,401.5-198.2,400.6-197.1,400.6z M-197.1,412.6c1.1,0,2,0.9,2,2v4c0,1.1-0.9,2-2,2c-1.1,0-2-0.9-2-2v-4
	C-199.1,413.5-198.2,412.6-197.1,412.6z"/>
</svg>
