<?xml version="1.0" encoding="utf-8"?>
<!-- Generator: Adobe Illustrator 19.0.0, SVG Export Plug-In . SVG Version: 6.00 Build 0)  -->
<svg version="1.1" id="Layer_1" xmlns="http://www.w3.org/2000/svg" xmlns:xlink="http://www.w3.org/1999/xlink" x="0px" y="0px"
	 viewBox="-255 347 100 100" style="enable-background:new -255 347 100 100;" xml:space="preserve">
<style type="text/css">
	.st0{fill:#FFFFFF;}
</style>
<path class="st0" d="M-185.2,393.8L-185.2,393.8c1,1.4,1.7,3.1,2,4.9h0c0.1,0.7,0.2,1.3,0.2,2c0,6.6-5.4,12-12,12
	c-0.3,0-0.6,0-1.1,0l3.6-4.4c3.2-1.1,5.5-4.1,5.5-7.6c0-0.7-0.1-1.4-0.3-2l0,0c-0.9-3.4-4-6-7.7-6c-1.6,0-3.1,0.5-4.3,1.3
	c-1.2-5.3-6-9.3-11.7-9.3c-6.6,0-12,5.4-12,12c0,0.7,0.1,1.3,0.2,2h0c0.8,4.5,4.1,8.2,8.4,9.5l-1.3,3.8c-5.9-1.8-10.3-7-11.1-13.3
	l0,0c-0.1-0.7-0.1-1.3-0.1-2c0-8.8,7.2-16,16-16c2,0,3.9,0.4,5.7,1l0,0c1.6-4.7,6.1-8,11.3-8c0.8,0,1.5,0.1,2.2,0.2
	c-0.1,0.6-0.2,1.2-0.2,1.8c0,4.4,3.6,8,8,8c0.6,0,1.2-0.1,1.8-0.2c0.1,0.7,0.2,1.5,0.2,2.2C-182,388.8-183.2,391.6-185.2,393.8z
	 M-195.8,377.9c-2.9,0.7-5.2,2.9-5.9,5.8l0,0c1.9,1.4,3.5,3.2,4.7,5.2c0.7-0.1,1.3-0.2,2-0.2c2.6,0,5,0.8,7,2.3l0,0
	c0.9-1,1.5-2.2,1.8-3.5C-191.1,386.5-194.9,382.7-195.8,377.9z M-207,398.6h10l-6,10h7l-13,16l3.6-12h-6.6L-207,398.6z"/>
</svg>
