<?xml version="1.0" encoding="utf-8"?>
<!-- Generator: Adobe Illustrator 19.0.0, SVG Export Plug-In . SVG Version: 6.00 Build 0)  -->
<svg version="1.1" id="Layer_1" xmlns="http://www.w3.org/2000/svg" xmlns:xlink="http://www.w3.org/1999/xlink" x="0px" y="0px"
	 viewBox="-255 347 100 100" style="enable-background:new -255 347 100 100;" xml:space="preserve">
<style type="text/css">
	.st0{fill:#FFFFFF;}
</style>
<path class="st0" d="M-182,418.6c-1.1,0-2-0.9-2-2c0-1.1,0.9-2,2-2s2,0.9,2,2C-180,417.7-180.9,418.6-182,418.6z M-191,411.9v-4.4
	c2.4-1.4,4-4,4-6.9c0-4.4-3.6-8-8-8c-1.6,0-3.1,0.5-4.3,1.3c-1.2-5.3-6-9.3-11.7-9.3c-6.6,0-12,5.4-12,12c0,3.5,1.6,6.7,4,8.9v4.9
	c-4.8-2.8-8-7.9-8-13.8c0-8.8,7.2-16,16-16c6,0,11.2,3.3,14,8.2c0.7-0.1,1.3-0.2,2-0.2c6.6,0,12,5.4,12,12
	C-183,405.9-186.3,410.3-191,411.9z M-224,419.6c1.1,0,2,0.9,2,2c0,1.1-0.9,2-2,2c-1.1,0-2-0.9-2-2
	C-226,420.5-225.1,419.6-224,419.6z M-214,402.6c0-1.1-0.1-2,1-2c1.1,0,1,0.9,1,2v24h-2l0,0l0,0c0-2.2-1.8-4-4-4v-2
	c1.5,0,2.9,0.6,4,1.6V402.6z M-205,416.6c-1.1,0-1-0.9-1-2v-8c0-1.1-0.1-2,1-2s1,0.9,1,2v8C-204,415.7-203.9,416.6-205,416.6z
	 M-205,420.6c1.1,0,2,0.9,2,2c0,1.1-0.9,2-2,2s-2-0.9-2-2C-207,421.5-206.1,420.6-205,420.6z M-197,400.6c1.1,0,1,0.9,1,2v18
	c1.8-2.4,4.7-4,8-4v2c-4.4,0-8,3.6-8,8h-2c0-0.3,0-0.5,0-0.8c-0.1-0.3,0-0.7,0-1.2v-22C-198,401.5-198.1,400.6-197,400.6z"/>
</svg>
